# xmcd
# 
# Track frame offsets:
#     150
#     12762
#     28612
#     43580
#     58180
#     77715
#     89175
#     104372
#     117825
#     139345
#     154557
#     167367
#     179820
#     195057
#     210072
#     227655
#     239215
#     253850
#     270937
#     287242
#     298987
#     311867
#     324882
#     336565
# 
# Disc length: 4792
# 
# Revision: 1
# Processed by: cddbd v1.5.2PL0 Copyright (c) Steve Scherf et al.
# Submitted via: fre:ac v1.0.17
# 
DISCID=5f12b618
DTITLE=B. B. KING - THE COMPLETE RPM - KENT RECORDING BOX
DYEAR=2015
DGENRE=Blues
TTITLE0=Gotta Find My Baby - alt. take
TTITLE1=Crying Won't Help You - take 2 (incomplete) and take 3
TTITLE2=Green And Lucky Blues
TTITLE3=Down Hearted (aka How Blue Can You Get?)
TTITLE4=Catfish Blues (aka Fishin' After Me)
TTITLE5=Baby Please Don't Go
TTITLE6=Dust My Broom
TTITLE7=When My Heart Beats Like A Hammer - take 5
TTITLE8=Going Down Slow - 1959 version take 1
TTITLE9=Looking The World Over
TTITLE10=Please Set The Date
TTITLE11=Somebody Done Changed The Lock On My Door
TTITLE12=Yes, Indeed
TTITLE13=Trouble In Mind - take 1
TTITLE14=St. Louis Blues - incomplete (technical problem at the recording)
TTITLE15=Blues At Sunrise - alt. take
TTITLE16=Drifting Blues
TTITLE17=Blues Shadows
TTITLE18=Troubles Troubles Troubles - take 1
TTITLE19=Please Accept My Love - alt. version
TTITLE20=Driving Wheel
TTITLE21=Someday Baby (aka Worried Life Blues)
TTITLE22=Did You Ever Love A Woman - alt. take
TTITLE23=Hold That Train - take 1
EXTD=
EXTT0=
EXTT1=
EXTT2=
EXTT3=
EXTT4=
EXTT5=
EXTT6=
EXTT7=
EXTT8=
EXTT9=
EXTT10=
EXTT11=
EXTT12=
EXTT13=
EXTT14=
EXTT15=
EXTT16=
EXTT17=
EXTT18=
EXTT19=
EXTT20=
EXTT21=
EXTT22=
EXTT23=
PLAYORDER=
